<mxfile host="Electron" modified="2024-07-06T16:53:35.573Z" agent="Mozilla/5.0 (Macintosh; Intel Mac OS X 10_15_7) AppleWebKit/537.36 (KHTML, like Gecko) draw.io/24.6.4 Chrome/124.0.6367.207 Electron/30.0.6 Safari/537.36" etag="_6MG-c-RFqb0scl8pAE7" version="24.6.4" type="device">
  <diagram id="C5RBs43oDa-KdzZeNtuy" name="Page-1">
    <mxGraphModel dx="1434" dy="854" grid="1" gridSize="10" guides="1" tooltips="1" connect="1" arrows="1" fold="1" page="1" pageScale="1" pageWidth="827" pageHeight="1169" math="0" shadow="0">
      <root>
        <mxCell id="WIyWlLk6GJQsqaUBKTNV-0" />
        <mxCell id="WIyWlLk6GJQsqaUBKTNV-1" parent="WIyWlLk6GJQsqaUBKTNV-0" />
        <mxCell id="U94lnkT9yLIvHcPwvWV0-4" style="edgeStyle=orthogonalEdgeStyle;rounded=0;orthogonalLoop=1;jettySize=auto;html=1;exitX=0.5;exitY=1;exitDx=0;exitDy=0;entryX=0.5;entryY=0;entryDx=0;entryDy=0;" parent="WIyWlLk6GJQsqaUBKTNV-1" source="WIyWlLk6GJQsqaUBKTNV-3" target="U94lnkT9yLIvHcPwvWV0-1" edge="1">
          <mxGeometry relative="1" as="geometry" />
        </mxCell>
        <mxCell id="U94lnkT9yLIvHcPwvWV0-5" style="edgeStyle=orthogonalEdgeStyle;rounded=0;orthogonalLoop=1;jettySize=auto;html=1;exitX=0.5;exitY=1;exitDx=0;exitDy=0;entryX=0.5;entryY=0;entryDx=0;entryDy=0;opacity=50;" parent="WIyWlLk6GJQsqaUBKTNV-1" source="WIyWlLk6GJQsqaUBKTNV-3" target="U94lnkT9yLIvHcPwvWV0-2" edge="1">
          <mxGeometry relative="1" as="geometry" />
        </mxCell>
        <mxCell id="WIyWlLk6GJQsqaUBKTNV-3" value="Sharding manager" style="rounded=1;whiteSpace=wrap;html=1;fontSize=12;glass=0;strokeWidth=1;shadow=0;fillColor=#d5e8d4;strokeColor=#82b366;" parent="WIyWlLk6GJQsqaUBKTNV-1" vertex="1">
          <mxGeometry x="169" y="200" width="120" height="40" as="geometry" />
        </mxCell>
        <mxCell id="U94lnkT9yLIvHcPwvWV0-0" value="&lt;font style=&quot;font-size: 22px;&quot;&gt;&lt;b&gt;Auto Publisher&lt;/b&gt;&lt;/font&gt;" style="text;html=1;align=center;verticalAlign=middle;resizable=0;points=[];autosize=1;strokeColor=none;fillColor=none;" parent="WIyWlLk6GJQsqaUBKTNV-1" vertex="1">
          <mxGeometry x="329" width="180" height="40" as="geometry" />
        </mxCell>
        <mxCell id="U94lnkT9yLIvHcPwvWV0-37" style="edgeStyle=orthogonalEdgeStyle;rounded=0;orthogonalLoop=1;jettySize=auto;html=1;exitX=0.5;exitY=1;exitDx=0;exitDy=0;entryX=0.5;entryY=0;entryDx=0;entryDy=0;" parent="WIyWlLk6GJQsqaUBKTNV-1" source="U94lnkT9yLIvHcPwvWV0-1" target="U94lnkT9yLIvHcPwvWV0-7" edge="1">
          <mxGeometry relative="1" as="geometry" />
        </mxCell>
        <mxCell id="U94lnkT9yLIvHcPwvWV0-38" style="edgeStyle=orthogonalEdgeStyle;rounded=0;orthogonalLoop=1;jettySize=auto;html=1;exitX=0.5;exitY=1;exitDx=0;exitDy=0;entryX=0.5;entryY=0;entryDx=0;entryDy=0;" parent="WIyWlLk6GJQsqaUBKTNV-1" source="U94lnkT9yLIvHcPwvWV0-1" target="U94lnkT9yLIvHcPwvWV0-6" edge="1">
          <mxGeometry relative="1" as="geometry" />
        </mxCell>
        <mxCell id="U94lnkT9yLIvHcPwvWV0-39" style="edgeStyle=orthogonalEdgeStyle;rounded=0;orthogonalLoop=1;jettySize=auto;html=1;exitX=0.5;exitY=1;exitDx=0;exitDy=0;entryX=0.5;entryY=0;entryDx=0;entryDy=0;" parent="WIyWlLk6GJQsqaUBKTNV-1" source="U94lnkT9yLIvHcPwvWV0-1" target="U94lnkT9yLIvHcPwvWV0-8" edge="1">
          <mxGeometry relative="1" as="geometry" />
        </mxCell>
        <mxCell id="U94lnkT9yLIvHcPwvWV0-1" value="Cluster 1&lt;div&gt;(Process)&lt;/div&gt;" style="whiteSpace=wrap;html=1;fillColor=#fff2cc;strokeColor=#d6b656;" parent="WIyWlLk6GJQsqaUBKTNV-1" vertex="1">
          <mxGeometry x="169" y="300" width="120" height="60" as="geometry" />
        </mxCell>
        <mxCell id="U94lnkT9yLIvHcPwvWV0-2" value="Cluster 2&lt;div&gt;(Process)&lt;/div&gt;" style="whiteSpace=wrap;html=1;fillColor=#fff2cc;strokeColor=#d6b656;opacity=40;" parent="WIyWlLk6GJQsqaUBKTNV-1" vertex="1">
          <mxGeometry x="329" y="300" width="120" height="60" as="geometry" />
        </mxCell>
        <mxCell id="U94lnkT9yLIvHcPwvWV0-40" style="edgeStyle=orthogonalEdgeStyle;rounded=0;orthogonalLoop=1;jettySize=auto;html=1;exitX=0.5;exitY=1;exitDx=0;exitDy=0;entryX=0.5;entryY=0;entryDx=0;entryDy=0;" parent="WIyWlLk6GJQsqaUBKTNV-1" source="U94lnkT9yLIvHcPwvWV0-6" target="U94lnkT9yLIvHcPwvWV0-22" edge="1">
          <mxGeometry relative="1" as="geometry" />
        </mxCell>
        <mxCell id="U94lnkT9yLIvHcPwvWV0-6" value="Shard 1" style="rhombus;whiteSpace=wrap;html=1;fillColor=#e1d5e7;strokeColor=#9673a6;" parent="WIyWlLk6GJQsqaUBKTNV-1" vertex="1">
          <mxGeometry x="99" y="420" width="80" height="80" as="geometry" />
        </mxCell>
        <mxCell id="U94lnkT9yLIvHcPwvWV0-41" style="edgeStyle=orthogonalEdgeStyle;rounded=0;orthogonalLoop=1;jettySize=auto;html=1;exitX=0.5;exitY=1;exitDx=0;exitDy=0;entryX=0.5;entryY=0;entryDx=0;entryDy=0;" parent="WIyWlLk6GJQsqaUBKTNV-1" source="U94lnkT9yLIvHcPwvWV0-7" target="U94lnkT9yLIvHcPwvWV0-21" edge="1">
          <mxGeometry relative="1" as="geometry" />
        </mxCell>
        <mxCell id="U94lnkT9yLIvHcPwvWV0-7" value="Shard 2" style="rhombus;whiteSpace=wrap;html=1;fillColor=#e1d5e7;strokeColor=#9673a6;" parent="WIyWlLk6GJQsqaUBKTNV-1" vertex="1">
          <mxGeometry x="189" y="420" width="80" height="80" as="geometry" />
        </mxCell>
        <mxCell id="U94lnkT9yLIvHcPwvWV0-42" style="edgeStyle=orthogonalEdgeStyle;rounded=0;orthogonalLoop=1;jettySize=auto;html=1;exitX=0.5;exitY=1;exitDx=0;exitDy=0;entryX=0.5;entryY=0;entryDx=0;entryDy=0;" parent="WIyWlLk6GJQsqaUBKTNV-1" source="U94lnkT9yLIvHcPwvWV0-8" target="U94lnkT9yLIvHcPwvWV0-23" edge="1">
          <mxGeometry relative="1" as="geometry" />
        </mxCell>
        <mxCell id="U94lnkT9yLIvHcPwvWV0-8" value="Shard 3" style="rhombus;whiteSpace=wrap;html=1;fillColor=#e1d5e7;strokeColor=#9673a6;" parent="WIyWlLk6GJQsqaUBKTNV-1" vertex="1">
          <mxGeometry x="283" y="420" width="80" height="80" as="geometry" />
        </mxCell>
        <mxCell id="WaBOD0cPtCX-z9Iq6tfD-3" style="edgeStyle=orthogonalEdgeStyle;rounded=0;orthogonalLoop=1;jettySize=auto;html=1;exitX=0.5;exitY=1;exitDx=0;exitDy=0;entryX=0;entryY=0.5;entryDx=0;entryDy=0;" parent="WIyWlLk6GJQsqaUBKTNV-1" source="U94lnkT9yLIvHcPwvWV0-21" target="U94lnkT9yLIvHcPwvWV0-43" edge="1">
          <mxGeometry relative="1" as="geometry">
            <Array as="points">
              <mxPoint x="229" y="600" />
              <mxPoint x="530" y="600" />
              <mxPoint x="530" y="130" />
            </Array>
          </mxGeometry>
        </mxCell>
        <mxCell id="U94lnkT9yLIvHcPwvWV0-21" value="&lt;div&gt;Receives:&lt;br&gt;&lt;/div&gt;Message event" style="shape=process;whiteSpace=wrap;html=1;backgroundOutline=1;fillColor=#ffe6cc;strokeColor=#d79b00;" parent="WIyWlLk6GJQsqaUBKTNV-1" vertex="1">
          <mxGeometry x="169" y="540" width="120" height="40" as="geometry" />
        </mxCell>
        <mxCell id="WaBOD0cPtCX-z9Iq6tfD-2" style="edgeStyle=orthogonalEdgeStyle;rounded=0;orthogonalLoop=1;jettySize=auto;html=1;exitX=0.5;exitY=1;exitDx=0;exitDy=0;entryX=0;entryY=0.5;entryDx=0;entryDy=0;" parent="WIyWlLk6GJQsqaUBKTNV-1" source="U94lnkT9yLIvHcPwvWV0-22" target="U94lnkT9yLIvHcPwvWV0-43" edge="1">
          <mxGeometry relative="1" as="geometry">
            <Array as="points">
              <mxPoint x="70" y="600" />
              <mxPoint x="530" y="600" />
              <mxPoint x="530" y="130" />
            </Array>
          </mxGeometry>
        </mxCell>
        <mxCell id="U94lnkT9yLIvHcPwvWV0-22" value="&lt;div&gt;Receives:&lt;/div&gt;Message event" style="shape=process;whiteSpace=wrap;html=1;backgroundOutline=1;fillColor=#ffe6cc;strokeColor=#d79b00;" parent="WIyWlLk6GJQsqaUBKTNV-1" vertex="1">
          <mxGeometry x="10" y="540" width="120" height="40" as="geometry" />
        </mxCell>
        <mxCell id="WaBOD0cPtCX-z9Iq6tfD-4" style="edgeStyle=orthogonalEdgeStyle;rounded=0;orthogonalLoop=1;jettySize=auto;html=1;exitX=0.5;exitY=1;exitDx=0;exitDy=0;entryX=0;entryY=0.5;entryDx=0;entryDy=0;" parent="WIyWlLk6GJQsqaUBKTNV-1" source="U94lnkT9yLIvHcPwvWV0-23" target="U94lnkT9yLIvHcPwvWV0-43" edge="1">
          <mxGeometry relative="1" as="geometry">
            <Array as="points">
              <mxPoint x="389" y="600" />
              <mxPoint x="530" y="600" />
              <mxPoint x="530" y="130" />
            </Array>
          </mxGeometry>
        </mxCell>
        <mxCell id="U94lnkT9yLIvHcPwvWV0-23" value="&lt;div&gt;Receives:&lt;br&gt;&lt;/div&gt;Message event" style="shape=process;whiteSpace=wrap;html=1;backgroundOutline=1;fillColor=#ffe6cc;strokeColor=#d79b00;" parent="WIyWlLk6GJQsqaUBKTNV-1" vertex="1">
          <mxGeometry x="329" y="540" width="120" height="40" as="geometry" />
        </mxCell>
        <mxCell id="U94lnkT9yLIvHcPwvWV0-35" value="&lt;font style=&quot;font-size: 22px;&quot;&gt;...&lt;/font&gt;" style="ellipse;shape=cloud;whiteSpace=wrap;html=1;opacity=50;" parent="WIyWlLk6GJQsqaUBKTNV-1" vertex="1">
          <mxGeometry x="390" y="410" width="120" height="80" as="geometry" />
        </mxCell>
        <mxCell id="U94lnkT9yLIvHcPwvWV0-36" style="edgeStyle=orthogonalEdgeStyle;rounded=0;orthogonalLoop=1;jettySize=auto;html=1;exitX=0.5;exitY=1;exitDx=0;exitDy=0;entryX=0.5;entryY=0.038;entryDx=0;entryDy=0;entryPerimeter=0;dashed=1;opacity=50;" parent="WIyWlLk6GJQsqaUBKTNV-1" source="U94lnkT9yLIvHcPwvWV0-2" target="U94lnkT9yLIvHcPwvWV0-35" edge="1">
          <mxGeometry relative="1" as="geometry" />
        </mxCell>
        <mxCell id="WaBOD0cPtCX-z9Iq6tfD-8" value="" style="edgeStyle=orthogonalEdgeStyle;rounded=0;orthogonalLoop=1;jettySize=auto;html=1;shape=link;" parent="WIyWlLk6GJQsqaUBKTNV-1" source="U94lnkT9yLIvHcPwvWV0-43" target="WaBOD0cPtCX-z9Iq6tfD-7" edge="1">
          <mxGeometry relative="1" as="geometry" />
        </mxCell>
        <mxCell id="U94lnkT9yLIvHcPwvWV0-43" value="&lt;b&gt;REST Manager&lt;/b&gt;&lt;div&gt;services/rest&lt;/div&gt;" style="rounded=1;whiteSpace=wrap;html=1;fillColor=#f8cecc;strokeColor=#b85450;" parent="WIyWlLk6GJQsqaUBKTNV-1" vertex="1">
          <mxGeometry x="607.5" y="100" width="175" height="60" as="geometry" />
        </mxCell>
        <mxCell id="U94lnkT9yLIvHcPwvWV0-47" value="Publishing (crossposting) flow" style="text;html=1;align=center;verticalAlign=middle;resizable=0;points=[];autosize=1;strokeColor=none;fillColor=none;" parent="WIyWlLk6GJQsqaUBKTNV-1" vertex="1">
          <mxGeometry x="329" y="40" width="180" height="30" as="geometry" />
        </mxCell>
        <mxCell id="WaBOD0cPtCX-z9Iq6tfD-1" value="" style="edgeStyle=orthogonalEdgeStyle;rounded=0;orthogonalLoop=1;jettySize=auto;html=1;shape=link;" parent="WIyWlLk6GJQsqaUBKTNV-1" source="WaBOD0cPtCX-z9Iq6tfD-0" target="WIyWlLk6GJQsqaUBKTNV-3" edge="1">
          <mxGeometry relative="1" as="geometry" />
        </mxCell>
        <mxCell id="WaBOD0cPtCX-z9Iq6tfD-0" value="&lt;b&gt;Discord bot&lt;/b&gt;&lt;div&gt;services/bot&lt;/div&gt;" style="rounded=1;whiteSpace=wrap;html=1;fillColor=#f8cecc;strokeColor=#b85450;" parent="WIyWlLk6GJQsqaUBKTNV-1" vertex="1">
          <mxGeometry x="149" y="100" width="160" height="60" as="geometry" />
        </mxCell>
        <mxCell id="WaBOD0cPtCX-z9Iq6tfD-5" value="Check if channel is being rate limited (10 messages/hour sublimit)" style="rounded=1;whiteSpace=wrap;html=1;" parent="WIyWlLk6GJQsqaUBKTNV-1" vertex="1">
          <mxGeometry x="590" y="270" width="210" height="60" as="geometry" />
        </mxCell>
        <mxCell id="WaBOD0cPtCX-z9Iq6tfD-10" value="" style="edgeStyle=orthogonalEdgeStyle;rounded=0;orthogonalLoop=1;jettySize=auto;html=1;" parent="WIyWlLk6GJQsqaUBKTNV-1" source="WaBOD0cPtCX-z9Iq6tfD-7" target="WaBOD0cPtCX-z9Iq6tfD-5" edge="1">
          <mxGeometry relative="1" as="geometry" />
        </mxCell>
        <mxCell id="WaBOD0cPtCX-z9Iq6tfD-7" value="Express client" style="rounded=1;whiteSpace=wrap;html=1;fontSize=12;glass=0;strokeWidth=1;shadow=0;fillColor=#d5e8d4;strokeColor=#82b366;" parent="WIyWlLk6GJQsqaUBKTNV-1" vertex="1">
          <mxGeometry x="635" y="200" width="120" height="40" as="geometry" />
        </mxCell>
        <mxCell id="WaBOD0cPtCX-z9Iq6tfD-9" value="POST /crosspost" style="text;html=1;align=center;verticalAlign=middle;resizable=0;points=[];autosize=1;strokeColor=none;fillColor=none;" parent="WIyWlLk6GJQsqaUBKTNV-1" vertex="1">
          <mxGeometry x="230" y="600" width="110" height="30" as="geometry" />
        </mxCell>
      </root>
    </mxGraphModel>
  </diagram>
</mxfile>
